<?xml version="1.0" encoding="UTF-8" standalone="no"?>
<!-- Created with Inkscape (http://www.inkscape.org/) -->

<svg
   width="210mm"
   height="297mm"
   viewBox="0 0 210 297"
   version="1.1"
   id="svg5"
   inkscape:version="1.2.1 (9c6d41e410, 2022-07-14)"
   sodipodi:docname="1.svg"
   xmlns:inkscape="http://www.inkscape.org/namespaces/inkscape"
   xmlns:sodipodi="http://sodipodi.sourceforge.net/DTD/sodipodi-0.dtd"
   xmlns="http://www.w3.org/2000/svg"
   xmlns:svg="http://www.w3.org/2000/svg">
  <sodipodi:namedview
     id="namedview7"
     pagecolor="#ffffff"
     bordercolor="#000000"
     borderopacity="0.25"
     inkscape:showpageshadow="2"
     inkscape:pageopacity="0.0"
     inkscape:pagecheckerboard="0"
     inkscape:deskcolor="#d1d1d1"
     inkscape:document-units="mm"
     showgrid="false"
     inkscape:zoom="0.71181884"
     inkscape:cx="489.59086"
     inkscape:cy="740.35691"
     inkscape:window-width="1366"
     inkscape:window-height="745"
     inkscape:window-x="-8"
     inkscape:window-y="-8"
     inkscape:window-maximized="1"
     inkscape:current-layer="layer1" />
  <defs
     id="defs2" />
  <g
     inkscape:label="Слой 1"
     inkscape:groupmode="layer"
     id="layer1">
    <path
       style="fill:#00ffff;fill-opacity:0.933333;stroke-width:0.264583"
       d="M 61.502654,55.194689 98.824776,112.49203 151.39115,53.092034 Z"
       id="path113" />
    <rect
       style="fill:#800080;fill-opacity:0.933333;stroke-width:0.264583"
       id="rect167"
       width="18.585018"
       height="23.417124"
       x="91.066589"
       y="64.304169" />
    <path
       style="fill:#d45500;fill-opacity:0.933333;stroke-width:0.264583"
       id="path273"
       sodipodi:type="arc"
       sodipodi:cx="92.274612"
       sodipodi:cy="71.0877"
       sodipodi:rx="4.9250298"
       sodipodi:ry="4.5533295"
       sodipodi:start="1.4129824"
       sodipodi:end="1.4086958"
       sodipodi:arc-type="slice"
       d="m 93.048629,75.584446 a 4.9250298,4.5533295 0 0 1 -5.637012,-3.776328 4.9250298,4.5533295 0 0 1 4.078556,-5.21562 4.9250298,4.5533295 0 0 1 5.645753,3.765149 4.9250298,4.5533295 0 0 1 -4.066455,5.22369 L 92.274612,71.0877 Z" />
    <rect
       style="fill:#d45500;fill-opacity:0.933333;stroke-width:0.264583"
       id="rect379"
       width="4.4604044"
       height="15.797266"
       x="80.844833"
       y="64.118317" />
    <rect
       style="fill:#d45500;fill-opacity:0.933333;stroke-width:0.264583"
       id="rect489"
       width="21.930323"
       height="21.186922"
       x="24.532225"
       y="136.04234" />
    <rect
       style="fill:#000080;fill-opacity:0.933333;stroke-width:0.264583"
       id="rect491"
       width="23.788824"
       height="20.071821"
       x="49.80785"
       y="136.41403" />
    <rect
       style="fill:#ffff00;fill-opacity:0.933333;stroke-width:0.264583"
       id="rect545"
       width="18.95672"
       height="25.275625"
       x="79.17218"
       y="136.04234" />
    <rect
       style="fill:#008000;fill-opacity:0.933333;stroke-width:0.264583"
       id="rect599"
       width="23.417124"
       height="21.558622"
       x="103.3327"
       y="138.64423" />
    <rect
       style="fill:#ff0000;fill-opacity:0.933333;stroke-width:0.264583"
       id="rect653"
       width="23.788824"
       height="26.019028"
       x="136.78574"
       y="137.52913" />
    <path
       style="fill:#ff0000;fill-opacity:0.933333;stroke-width:0.264583"
       d="m 55.011655,231.94103 11.894413,-11.89441 14.496314,12.26611 z"
       id="path761" />
    <path
       style="fill:#ff0000;fill-opacity:0.933333;stroke-width:0.264583"
       d="m 59.100359,235.28634 16.726517,1.4868 -8.549108,8.92081 z"
       id="path763" />
    <path
       style="fill:#008080;fill-opacity:0.933333;stroke-width:0.264583"
       id="path817"
       sodipodi:type="arc"
       sodipodi:cx="57.613556"
       sodipodi:cy="216.51546"
       sodipodi:rx="8.1774082"
       sodipodi:ry="8.3632584"
       sodipodi:start="1.4129824"
       sodipodi:end="1.4086958"
       sodipodi:arc-type="slice"
       d="m 58.898715,224.77479 a 8.1774082,8.3632584 0 0 1 -9.359566,-6.93612 8.1774082,8.3632584 0 0 1 6.771942,-9.57971 8.1774082,8.3632584 0 0 1 9.374081,6.91558 8.1774082,8.3632584 0 0 1 -6.751851,9.59454 l -1.319765,-8.25362 z" />
    <path
       style="fill:#008080;fill-opacity:0.933333;stroke-width:0.264583"
       id="path819"
       sodipodi:type="arc"
       sodipodi:cx="73.782524"
       sodipodi:cy="215.77206"
       sodipodi:rx="8.3632584"
       sodipodi:ry="8.7349586"
       sodipodi:start="1.4129824"
       sodipodi:end="1.4086958"
       sodipodi:arc-type="slice"
       d="m 75.096891,224.39848 a 8.3632584,8.7349586 0 0 1 -9.572283,-7.24439 8.3632584,8.7349586 0 0 1 6.92585,-10.00547 8.3632584,8.7349586 0 0 1 9.587128,7.22293 8.3632584,8.7349586 0 0 1 -6.905303,10.02096 l -1.349759,-8.62045 z" />
    <path
       style="fill:#000000;fill-opacity:0.933333;stroke-width:0.264583"
       id="path925"
       sodipodi:type="arc"
       sodipodi:cx="57.954422"
       sodipodi:cy="217.29623"
       sodipodi:rx="2.1026549"
       sodipodi:ry="2.2997789"
       sodipodi:start="1.4129824"
       sodipodi:end="1.4086958"
       sodipodi:arc-type="slice"
       d="m 58.284875,219.56743 a 2.1026549,2.2997789 0 0 1 -2.406623,-1.90733 2.1026549,2.2997789 0 0 1 1.741268,-2.63429 2.1026549,2.2997789 0 0 1 2.410355,1.90169 2.1026549,2.2997789 0 0 1 -1.736102,2.63836 l -0.339351,-2.26963 z" />
    <path
       style="fill:#000000;fill-opacity:0.933333;stroke-width:0.264583"
       id="path979"
       sodipodi:type="arc"
       sodipodi:cx="74.644249"
       sodipodi:cy="216.37633"
       sodipodi:rx="2.2340708"
       sodipodi:ry="2.4311948"
       sodipodi:start="1.4129824"
       sodipodi:end="1.4086958"
       sodipodi:arc-type="slice"
       d="m 74.995355,218.77731 a 2.2340708,2.4311948 0 0 1 -2.557037,-2.01632 2.2340708,2.4311948 0 0 1 1.850097,-2.78482 2.2340708,2.4311948 0 0 1 2.561002,2.01035 2.2340708,2.4311948 0 0 1 -1.844608,2.78913 l -0.36056,-2.39932 z" />
    <path
       style="fill:#000000;fill-opacity:0.933333;stroke-width:0.264583"
       d="m 47.577647,225.99383 c -23.788823,11.89441 -24.532224,19.70012 -18.585018,26.76242 5.947206,7.06231 5.203806,13.00953 14.868016,10.40761 9.664208,-2.6019 1.4868,0.3717 11.52271,4.46041 10.035911,4.08871 25.647327,7.80571 28.249229,4.83211 2.601902,-2.9736 -0.7434,-9.66422 8.177408,-14.86802 8.920808,-5.20381 13.752918,-3.3453 13.752918,-15.23972 0,-11.89441 -3.34531,-19.32841 -9.292514,-18.21331 -5.947206,1.1151 -10.40761,7.8057 -13.009512,14.49631 -2.601902,6.69061 -28.249229,11.52271 -28.992628,8.54911 -0.743403,-2.9736 -6.690609,-21.18692 -6.690609,-21.18692 z"
       id="path1035" />
    <path
       style="fill:#ff0000;fill-opacity:0.933333;stroke-width:0.264583"
       d="m 136.04234,228.22403 c 2.9736,-2.9736 50.55125,-31.22283 50.55125,-31.22283 l 2.2302,51.29465 -46.09085,17.09822 z"
       id="path1037" />
  </g>
</svg>
